<svg width="58" height="56" viewBox="0 0 58 56" fill="none" xmlns="http://www.w3.org/2000/svg">
<g filter="url(#filter0_d_519_57)">
<path fill-rule="evenodd" clip-rule="evenodd" d="M53.4435 24.9094C50.6648 28.2191 46.8179 30.8342 42.2255 32.2168C30.591 35.7194 18.5781 29.9847 15.394 19.4079C14.3702 16.0074 14.3837 12.5205 15.2599 9.23774C9.00772 14.7893 6.12082 23.2949 8.55708 31.3873C11.9801 42.7574 24.6153 49.0061 36.7786 45.3443C46.5316 42.4081 53.0198 33.9915 53.4435 24.9094Z" fill="#D9D9D9"/>
</g>
<path fill-rule="evenodd" clip-rule="evenodd" d="M53.6143 24.6174C53.728 27.1267 52.9953 30.3532 51.4305 33.5988C51.4288 33.5988 51.4271 33.5988 51.4255 33.5988C48.7038 33.5988 46.2808 32.6959 44.7251 31.2912C45.3403 31.0247 45.9594 30.7273 46.5773 30.3992C49.667 28.7586 52.1354 26.6646 53.6143 24.6174Z" fill="#979797" fill-opacity="0.22"/>
<circle cx="27.9255" cy="38.5988" r="2" fill="#979797" fill-opacity="0.22"/>
<path fill-rule="evenodd" clip-rule="evenodd" d="M15.8185 20.9888C14.694 21.571 13.9255 22.7452 13.9255 24.0988C13.9255 26.0318 15.4926 27.5988 17.4255 27.5988C18.2837 27.5988 19.0696 27.29 19.6784 26.7774C17.9532 25.1026 16.6264 23.1398 15.8185 20.9888Z" fill="#979797" fill-opacity="0.22"/>
<defs>
<filter id="filter0_d_519_57" x="0.195801" y="9.23773" width="54.7477" height="46.6537" filterUnits="userSpaceOnUse" color-interpolation-filters="sRGB">
<feFlood flood-opacity="0" result="BackgroundImageFix"/>
<feColorMatrix in="SourceAlpha" type="matrix" values="0 0 0 0 0 0 0 0 0 0 0 0 0 0 0 0 0 0 127 0" result="hardAlpha"/>
<feOffset dx="-3" dy="5"/>
<feGaussianBlur stdDeviation="2.25"/>
<feComposite in2="hardAlpha" operator="out"/>
<feColorMatrix type="matrix" values="0 0 0 0 1 0 0 0 0 1 0 0 0 0 1 0 0 0 0.52 0"/>
<feBlend mode="normal" in2="BackgroundImageFix" result="effect1_dropShadow_519_57"/>
<feBlend mode="normal" in="SourceGraphic" in2="effect1_dropShadow_519_57" result="shape"/>
</filter>
</defs>
</svg>
